<?xml version="1.0" encoding="UTF-8" standalone="no"?>
<!-- Generator: Adobe Illustrator 18.0.0, SVG Export Plug-In . SVG Version: 6.00 Build 0)  -->

<svg
   xmlns:dc="http://purl.org/dc/elements/1.1/"
   xmlns:cc="http://creativecommons.org/ns#"
   xmlns:rdf="http://www.w3.org/1999/02/22-rdf-syntax-ns#"
   xmlns:svg="http://www.w3.org/2000/svg"
   xmlns="http://www.w3.org/2000/svg"
   xmlns:sodipodi="http://sodipodi.sourceforge.net/DTD/sodipodi-0.dtd"
   xmlns:inkscape="http://www.inkscape.org/namespaces/inkscape"
   version="1.1"
   id="Layer_2_1_"
   x="0px"
   y="0px"
   viewBox="0 0 2003.1989 542.3"
   enable-background="new 0 0 841.9 595.3"
   xml:space="preserve"
   sodipodi:docname="moon-title.svg"
   inkscape:version="0.92.3 (2405546, 2018-03-11)"
   width="2003.199"
   height="542.29999"><metadata
   id="metadata17"><rdf:RDF><cc:Work
       rdf:about=""><dc:format>image/svg+xml</dc:format><dc:type
         rdf:resource="http://purl.org/dc/dcmitype/StillImage" /><dc:title></dc:title></cc:Work></rdf:RDF></metadata><defs
   id="defs15">
	
	
	
	
</defs><sodipodi:namedview
   pagecolor="#ffffff"
   bordercolor="#666666"
   borderopacity="1"
   objecttolerance="10"
   gridtolerance="10"
   guidetolerance="10"
   inkscape:pageopacity="0"
   inkscape:pageshadow="2"
   inkscape:window-width="1920"
   inkscape:window-height="1016"
   id="namedview13"
   showgrid="false"
   inkscape:zoom="0.39643878"
   inkscape:cx="421.03205"
   inkscape:cy="253.52192"
   inkscape:window-x="0"
   inkscape:window-y="27"
   inkscape:window-maximized="1"
   inkscape:current-layer="Layer_2_1_" />

<g
   id="g161"
   transform="translate(0,6.6210931e-5)"><g
     transform="translate(-122,-24.999888)"
     id="g147"><path
       inkscape:connector-curvature="0"
       style="fill:#b3b3b3;fill-opacity:1;stroke-width:1.08717918"
       d="m 500.77734,57.519531 c -29.89742,0 -69.03604,21.309343 -108.60937,58.273439 C 352.59465,79.04631 313.45602,57.955078 283.55859,57.955078 v 0.109375 c -9.1323,0 -17.39493,1.95661 -24.57031,6.087891 -30.54973,17.612303 -37.39885,72.514246 -21.63476,141.441406 -67.62254,20.87384 -111.6543,54.25 -111.6543,89.47461 0,35.33332 44.24985,68.81886 112.08984,89.58398 -15.65538,69.1446 -8.69752,124.15528 21.96094,141.76758 7.06666,4.13128 15.32863,6.08789 24.46094,6.08789 29.89743,0 69.03605,-21.30739 108.60937,-58.27148 39.57332,36.74666 78.71195,57.83789 108.60938,57.83789 9.13231,0 17.39493,-1.95661 24.57031,-6.08789 30.54974,-17.6123 37.39887,-72.5162 21.63477,-141.44336 67.40511,-20.76513 111.43554,-54.25001 111.43554,-89.47461 0,-35.33333 -44.24791,-68.81886 -112.08789,-89.58398 15.65538,-69.1446 8.69751,-124.15528 -21.96094,-141.767583 -7.03779,-4.114405 -15.26362,-6.068058 -24.24414,-6.083985 z m -0.10937,24.246094 v 0.107422 c 5.00102,0 9.02427,0.977967 12.39453,2.826172 14.78564,8.479997 21.20024,40.770531 16.19922,82.300781 -1.1959,10.21948 -3.15313,20.98238 -5.54492,31.96289 -21.30872,-5.21846 -44.57558,-9.24233 -69.03711,-11.85156 -14.67692,-20.11281 -29.89733,-38.37588 -45.22657,-54.35742 35.38577,-32.889227 68.60368,-50.931075 91.21485,-50.988285 z m -217.10938,0.433594 c 22.50461,0 55.88023,17.938021 91.32227,50.662111 -15.22051,15.98154 -30.4409,34.13719 -44.90039,54.25 -24.57025,2.60923 -47.83582,6.63181 -69.14453,11.95898 -2.50052,-10.87179 -4.34773,-21.41658 -5.65235,-31.52734 -5.10974,-41.53025 1.19613,-73.819488 15.87305,-82.408204 3.26154,-1.956922 7.50093,-2.826172 12.50195,-2.826172 z m 108.5,67.730471 c 10.11077,10.43692 20.22256,22.07101 30.22461,34.79101 -9.78462,-0.43487 -19.78766,-0.76172 -29.89843,-0.76172 -10.21949,0 -20.32933,0.21813 -30.22266,0.76172 9.78461,-12.72 19.89444,-24.35409 29.89648,-34.79101 z m 0.32618,58.38281 c 16.4164,0 32.83357,0.75983 48.92382,2.06445 9.02359,12.93743 17.8286,26.7443 26.3086,41.3125 8.26256,14.24205 15.76405,28.70329 22.61328,43.27149 -6.84923,14.5682 -14.35007,29.1349 -22.50391,43.37695 -8.48,14.67692 -17.17758,28.59381 -26.20117,41.53125 -16.19897,1.41333 -32.6155,2.17383 -49.14062,2.17383 -16.41641,0 -32.83162,-0.76179 -48.92188,-2.06641 -9.02358,-12.93743 -17.83055,-26.7443 -26.31055,-41.3125 -8.26256,-14.24204 -15.76405,-28.70133 -22.61328,-43.26953 6.74051,-14.5682 14.35007,-29.13685 22.50391,-43.37891 8.48,-14.67691 17.17758,-28.59186 26.20117,-41.52929 16.19897,-1.41334 32.6155,-2.17383 49.14063,-2.17383 z m -80.77735,5.65234 c -5.32717,8.37128 -10.65326,16.95947 -15.6543,25.76563 -5.00101,8.69743 -9.67732,17.39631 -14.13476,26.09375 -5.87076,-14.5682 -10.87067,-29.13621 -15.00195,-43.26953 14.24205,-3.37026 29.24435,-6.30677 44.79101,-8.58985 z m 161.33789,0 c 8.38078,1.23942 16.59569,2.64546 24.63867,4.22266 a 18.616669,18.616669 0 0 1 8.19141,-1.91211 18.616669,18.616669 0 0 1 18.61719,18.61719 18.616669,18.616669 0 0 1 -16.99024,18.5332 c -1.46644,4.01825 -2.98583,8.04462 -4.56054,12.07227 -2.7179,-5.30321 -5.53207,-10.60695 -8.46094,-15.91016 a 18.616669,18.616669 0 0 1 -7.05078,-12.34375 c -4.63198,-7.93933 -9.50158,-15.70537 -14.38477,-23.2793 z m 68.05664,15.00391 c 10.76307,3.37026 20.9836,7.06533 30.55078,11.08789 38.48614,16.41641 63.38282,37.943 63.38282,55.01172 -0.10872,17.06871 -25.00604,38.70403 -63.49219,55.01172 -9.34974,4.02256 -19.5696,7.61021 -30.11524,10.98047 -6.19691,-21.30872 -14.35017,-43.48694 -24.46093,-66.20899 10.00205,-22.61333 18.04655,-44.68281 24.13476,-65.88281 z m -297.66992,0.10742 c 6.19692,21.30871 14.35213,43.4889 24.46289,66.21094 -10.00205,22.61333 -18.04851,44.68282 -24.13672,65.88281 -10.76307,-3.37025 -20.98099,-7.06728 -30.43945,-11.08984 -38.48615,-16.41641 -63.38281,-37.94301 -63.38281,-55.01172 0,-17.06872 24.89666,-38.70403 63.38281,-55.01172 9.34974,-4.02256 19.56764,-7.61021 30.11328,-10.98047 z m 259.50977,95.12891 c 5.87076,14.5682 10.87262,29.1362 15.0039,43.26953 -14.24205,3.47898 -29.24435,6.41418 -44.79101,8.69727 5.32717,-8.37129 10.65326,-16.95948 15.65429,-25.76563 5.00102,-8.69743 9.67538,-17.50374 14.13282,-26.20117 z m -221.02344,0.43554 c 4.45744,8.69745 9.13245,17.39437 14.24219,26.0918 5.10974,8.69744 10.32907,17.17688 15.65625,25.43946 -15.43794,-2.28308 -30.33217,-5.10893 -44.57422,-8.5879 4.02257,-14.02461 9.02245,-28.48386 14.67578,-42.94336 z m 242.11523,66.31836 c 2.50051,10.98051 4.45841,21.52595 5.6543,31.63672 5.10975,41.53024 -1.19613,73.8195 -15.87305,82.40821 -3.26154,1.95692 -7.50288,2.82617 -12.5039,2.82617 -22.50461,0 -55.88022,-17.93802 -91.32227,-50.66211 15.22051,-15.98154 30.44091,-34.13718 44.90039,-54.25 24.57025,-2.60923 47.83582,-6.63181 69.14453,-11.95899 z m -262.8789,0.2168 c 21.30871,5.21846 44.57362,9.24038 69.03515,11.84961 14.67692,20.11282 29.89734,38.37785 45.22657,54.35938 -35.44205,32.94153 -68.70894,50.98828 -91.32227,50.98828 -4.8923,-0.10872 -9.02362,-1.08734 -12.28516,-2.93555 -14.78564,-8.47999 -21.20024,-40.76859 -16.19921,-82.29883 1.19589,-10.21949 3.15313,-20.98238 5.54492,-31.96289 z m 101.32422,14.24219 c 9.78462,0.43487 19.78571,0.75976 29.89648,0.75976 10.21949,0 20.33128,-0.21617 30.22461,-0.75976 -9.78461,12.71999 -19.89639,24.35214 -29.89844,34.78906 -10.11076,-10.43692 -20.2206,-22.06907 -30.22265,-34.78906 z"
       id="path2" /><path
       inkscape:connector-curvature="0"
       style="fill:#b3b3b3;stroke-width:1.50898266"
       d="m 393.95117,28.6875 a 267.38066,267.38066 0 0 0 -0.80273,0.02734 v 228.41993 a 39.764267,39.764267 0 0 1 0.78711,-0.0274 39.764267,39.764267 0 0 1 39.76367,39.76563 39.764267,39.764267 0 0 1 -39.76367,39.76367 39.764267,39.764267 0 0 1 -0.78711,-0.0391 v 226.8125 a 267.38066,267.38066 0 0 0 0.80273,0.0391 A 267.38066,267.38066 0 0 0 661.33008,296.07031 267.38066,267.38066 0 0 0 393.95117,28.6875 Z m 88.89063,78.88281 a 26.052448,26.052448 0 0 1 26.05273,26.05078 26.052448,26.052448 0 0 1 -26.05273,26.05274 26.052448,26.052448 0 0 1 -26.05274,-26.05274 26.052448,26.052448 0 0 1 26.05274,-26.05078 z m 22.70703,112.07617 a 16.454176,16.454176 0 0 1 16.45312,16.45508 16.454176,16.454176 0 0 1 -16.45312,16.45313 16.454176,16.454176 0 0 1 -16.45508,-16.45313 16.454176,16.454176 0 0 1 16.45508,-16.45508 z m 75.41406,65.01368 a 26.052448,26.052448 0 0 1 26.05273,26.05273 26.052448,26.052448 0 0 1 -26.05273,26.05078 26.052448,26.052448 0 0 1 -26.05078,-26.05078 26.052448,26.052448 0 0 1 26.05078,-26.05273 z M 504.4043,421.0957 a 26.052448,26.052448 0 0 1 26.05273,26.05274 26.052448,26.052448 0 0 1 -26.05273,26.05273 26.052448,26.052448 0 0 1 -26.05274,-26.05273 26.052448,26.052448 0 0 1 26.05274,-26.05274 z"
       id="path23" /><polygon
       style="fill:#61dafb"
       id="polygon4"
       points="" /><polygon
       style="fill:#61dafb"
       id="polygon8"
       points="" /><path
       style="fill:#b3b3b3;stroke-width:0.83228695"
       d="m 393.14887,257.1599 a 39.764268,39.764268 0 0 0 -38.72651,39.72663 39.764268,39.764268 0 0 0 38.72651,39.71177 z"
       id="path32-3-6"
       inkscape:connector-curvature="0" /></g><text
     id="text151"
     y="439.45593"
     x="587.16107"
     style="font-style:normal;font-weight:normal;font-size:351.11294556px;line-height:1.25;font-family:sans-serif;letter-spacing:0px;word-spacing:0px;fill:#000000;fill-opacity:1;stroke:none;stroke-width:8.77782345"
     xml:space="preserve"><tspan
       style="font-style:normal;font-variant:normal;font-weight:bold;font-stretch:normal;font-size:468.15054321px;font-family:sans-serif;-inkscape-font-specification:'sans-serif Bold';stroke-width:8.77782345"
       y="439.45593"
       x="587.16107"
       id="tspan149"
       sodipodi:role="line">Moon</tspan></text>
</g></svg>